<svg width="24" height="24" viewBox="0 0 24 24" fill="none" xmlns="http://www.w3.org/2000/svg">
<g clip-path="url(#clip0)">
<path d="M22.1844 2.91844C19.7635 0.497565 15.8378 0.497565 13.417 2.91844L1.36229 14.973C-0.454098 16.7894 -0.454098 19.7326 1.36229 21.549C2.85942 23.0462 5.11756 23.2879 6.88282 22.3162C7.06723 22.3069 7.24856 22.2372 7.38964 22.0977L19.4443 10.0431C20.6547 8.83266 20.6547 6.87055 19.4443 5.66015C18.2339 4.44974 16.2717 4.44974 15.0613 5.66015L5.19814 15.5233C4.8959 15.8255 4.8959 16.3168 5.19814 16.619C5.50039 16.9212 5.99168 16.9212 6.29386 16.619L16.157 6.75586C16.763 6.14987 17.7441 6.14987 18.3485 6.75586C18.9545 7.36185 18.9545 8.34287 18.3485 8.94735L6.84099 20.4548C5.63059 21.6652 3.66848 21.6652 2.45808 20.4548C1.24767 19.2444 1.24767 17.2823 2.45808 16.0719L14.5127 4.01415C16.3291 2.19776 19.2722 2.19776 21.0887 4.01415C22.9051 5.83054 22.9051 8.77367 21.0887 10.5901L10.1298 21.549C9.82753 21.8513 9.82753 22.3426 10.1298 22.6447C10.432 22.947 10.9233 22.947 11.2255 22.6447L22.1844 11.6858C24.6053 9.26504 24.6053 5.33931 22.1844 2.91844Z" fill="black"/>
</g>
<defs>
<clipPath id="clip0">
<rect width="24" height="24" fill="white"/>
</clipPath>
</defs>
</svg>
