<svg width="14" height="24" viewBox="0 0 14 24" fill="none" xmlns="http://www.w3.org/2000/svg">
<path d="M12.9114 0.639622L9.88494 0.634766C6.48478 0.634766 4.28745 2.88916 4.28745 6.37843V9.02664H1.24444C0.98149 9.02664 0.768555 9.23982 0.768555 9.50277V13.3397C0.768555 13.6027 0.981733 13.8156 1.24444 13.8156H4.28745V23.4975C4.28745 23.7604 4.50038 23.9734 4.76333 23.9734H8.73359C8.99654 23.9734 9.20948 23.7602 9.20948 23.4975V13.8156H12.7675C13.0304 13.8156 13.2433 13.6027 13.2433 13.3397L13.2448 9.50277C13.2448 9.37651 13.1945 9.2556 13.1054 9.16625C13.0163 9.0769 12.8949 9.02664 12.7687 9.02664H9.20948V6.78172C9.20948 5.70272 9.4666 5.15496 10.8722 5.15496L12.911 5.15423C13.1737 5.15423 13.3866 4.94106 13.3866 4.67835V1.11551C13.3866 0.853042 13.1739 0.640107 12.9114 0.639622Z" fill="black"/>
</svg>
