<svg width="64" height="51" viewBox="0 0 64 51" fill="none" xmlns="http://www.w3.org/2000/svg">
<path fill-rule="evenodd" clip-rule="evenodd" d="M31.7778 0H31.6234C27.9353 0.135367 24.9952 5.27218 26.6172 9.88415C28.2393 14.4961 30.949 18.4954 31.9583 24.4301C32.97 18.493 35.162 14.4961 36.784 9.88415C38.406 5.27218 35.4659 0.140117 31.7778 0ZM30.1605 28.6978C25.748 22.5611 13.4439 17.2486 6.33359 18.6759C1.64562 19.6163 -0.596245 21.9745 0.13996 25.0049C0.614932 26.957 3.36502 28.541 6.20534 28.541C10.9384 28.541 13.2895 26.3657 16.0824 25.6722C19.6447 24.7887 25.0356 24.309 30.1605 28.6978ZM27.8664 23.5325L27.7714 23.2023C26.0615 17.2652 23.2758 11.0312 17.8493 8.20988C15.1538 6.80871 11.9691 8.19563 12.2446 10.4992C12.5533 13.0736 14.7738 13.8145 18.7612 16.2345C22.3971 18.436 24.9786 20.0343 27.864 23.5348L27.8664 23.5325ZM33.8392 28.5196C38.254 22.3806 50.5558 17.0705 57.6661 18.4978C62.3541 19.4477 64.5959 21.7964 63.8621 24.8267C63.3871 26.7789 60.6394 28.3629 57.7967 28.3629C53.0636 28.3629 50.7125 26.1852 47.9197 25.4941C44.3574 24.6106 38.9665 24.1309 33.8415 28.5196H33.8392ZM36.1333 23.5325L36.2283 23.2023C37.9382 17.2652 40.7239 11.0312 46.1504 8.20988C48.8459 6.80871 52.0282 8.19563 51.7551 10.4992C51.4487 13.0712 49.2282 13.8122 45.2361 16.2298C41.6026 18.4313 39.0187 20.0295 36.1357 23.5301L36.1333 23.5325Z" fill="#647DD2"/>
<path d="M11.3377 38.8954C11.4084 39.0369 11.4718 39.1819 11.5277 39.33C11.5585 39.2516 11.587 39.1756 11.6179 39.0925C11.6482 39.0187 11.6823 38.9466 11.72 38.8764L13.6413 35.3853C13.664 35.3321 13.7054 35.2891 13.7576 35.2642C13.8134 35.2494 13.871 35.243 13.9286 35.2452H14.5461V41.0327H13.8146V36.8791C13.8146 36.8197 13.8146 36.7556 13.8146 36.6891C13.8146 36.6226 13.8146 36.5538 13.8265 36.4825L11.8839 40.0448C11.8582 40.1024 11.816 40.1511 11.7628 40.1849C11.7098 40.2169 11.6489 40.2334 11.587 40.2324H11.4707C11.4072 40.2345 11.3445 40.2175 11.2908 40.1836C11.237 40.1497 11.1946 40.1006 11.1691 40.0424L9.18605 36.4801C9.18605 36.5514 9.18605 36.625 9.20267 36.6939C9.21929 36.7627 9.20267 36.8292 9.20267 36.891V41.0517H8.48071V35.2547H9.09818C9.15579 35.2527 9.2134 35.2591 9.26917 35.2737C9.32052 35.299 9.361 35.342 9.38316 35.3948L11.3377 38.8954ZM21.3738 38.1449C21.3779 38.55 21.3078 38.9524 21.1672 39.3323C21.0376 39.6805 20.8389 39.9988 20.583 40.268C20.3282 40.5318 20.0207 40.7389 19.6805 40.876C18.9287 41.1668 18.0955 41.1668 17.3437 40.876C17.0034 40.7379 16.6953 40.5309 16.4389 40.268C16.1813 39.9996 15.9816 39.6811 15.8523 39.3323C15.5763 38.5648 15.5763 37.7251 15.8523 36.9575C15.9782 36.6103 16.1753 36.2932 16.4309 36.0266C16.6865 35.7599 16.995 35.5496 17.3366 35.4091C18.088 35.1165 18.9219 35.1165 19.6734 35.4091C20.0136 35.5482 20.321 35.7569 20.5759 36.0218C20.8319 36.291 21.0306 36.6093 21.1601 36.9575C21.3007 37.3374 21.3707 37.7398 21.3667 38.1449H21.3738ZM20.5236 38.1449C20.5286 37.8274 20.4812 37.5113 20.3835 37.2092C20.3006 36.9459 20.163 36.7032 19.9798 36.4968C19.803 36.3041 19.5856 36.1532 19.3433 36.055C18.8079 35.8511 18.2163 35.8511 17.6809 36.055C17.4385 36.1531 17.2211 36.304 17.0444 36.4968C16.8603 36.7033 16.7212 36.9459 16.636 37.2092C16.444 37.8199 16.444 38.4747 16.636 39.0854C16.7206 39.3489 16.8598 39.5916 17.0444 39.7978C17.2217 39.9893 17.439 40.1394 17.6809 40.2372C18.2163 40.4409 18.8079 40.4409 19.3433 40.2372C19.5852 40.1392 19.8025 39.9892 19.9798 39.7978C20.1636 39.5918 20.3012 39.3489 20.3835 39.0854C20.4826 38.7787 20.5299 38.4576 20.5236 38.1354V38.1449ZM26.7339 35.2523V41.0399H25.886V35.9078H24.0265C23.9885 36.6472 23.9371 37.2884 23.8722 37.8314C23.8185 38.3001 23.7392 38.7655 23.6347 39.2255C23.5653 39.552 23.4618 39.8704 23.3259 40.1754C23.2324 40.3862 23.104 40.5797 22.946 40.7478C22.8226 40.8761 22.6704 40.973 22.5019 41.0304C22.3398 41.0818 22.1707 41.1074 22.0008 41.1064C21.8821 41.111 21.7634 41.0966 21.6493 41.0636C21.5685 41.0351 21.5282 40.9947 21.5282 40.9401V40.4129H21.8155C21.9228 40.4129 22.0292 40.3928 22.129 40.3535C22.248 40.3022 22.3512 40.2202 22.4282 40.116C22.546 39.9534 22.6389 39.7741 22.7037 39.5841C22.8082 39.2848 22.8876 38.9774 22.9412 38.665C23.0125 38.2834 23.0726 37.8156 23.1217 37.2615C23.1708 36.7073 23.2088 36.0448 23.2357 35.2737L26.7339 35.2523ZM33.5521 38.1449C33.5561 38.55 33.4861 38.9524 33.3455 39.3323C33.2158 39.6804 33.0171 39.9987 32.7612 40.268C32.5064 40.5318 32.199 40.7389 31.8588 40.876C31.107 41.1668 30.2738 41.1668 29.5219 40.876C29.1816 40.7379 28.8736 40.5309 28.6171 40.268C28.3596 39.9996 28.1599 39.6811 28.0305 39.3323C27.7548 38.5647 27.7548 37.7251 28.0305 36.9575C28.1576 36.61 28.3559 36.293 28.6127 36.0268C28.8696 35.7605 29.1793 35.5509 29.5219 35.4115C30.2734 35.1189 31.1073 35.1189 31.8588 35.4115C32.199 35.5506 32.5064 35.7593 32.7612 36.0242C33.0173 36.2933 33.216 36.6117 33.3455 36.9599C33.4861 37.3398 33.5561 37.7422 33.5521 38.1473V38.1449ZM32.7019 38.1449C32.7068 37.8274 32.6595 37.5113 32.5618 37.2092C32.4789 36.9459 32.3413 36.7032 32.158 36.4968C31.9813 36.3041 31.7639 36.1532 31.5216 36.055C30.9862 35.8511 30.3945 35.8511 29.8592 36.055C29.6168 36.1531 29.3994 36.304 29.2227 36.4968C29.0385 36.7033 28.8994 36.9459 28.8142 37.2092C28.6222 37.8199 28.6222 38.4747 28.8142 39.0854C28.8988 39.3489 29.038 39.5917 29.2227 39.7978C29.3999 39.9893 29.6173 40.1394 29.8592 40.2372C30.3946 40.4409 30.9862 40.4409 31.5216 40.2372C31.7634 40.1392 31.9807 39.9892 32.158 39.7978C32.3418 39.5918 32.4795 39.3489 32.5618 39.0854C32.6608 38.7787 32.7082 38.4576 32.7019 38.1354V38.1449ZM38.5488 41.0399H37.7152V38.5724C37.3985 38.6531 37.0985 38.7165 36.8151 38.7624C36.5451 38.8061 36.2717 38.826 35.9982 38.8217C35.7621 38.8193 35.5273 38.7857 35.3 38.722C35.0997 38.6663 34.9141 38.5674 34.7561 38.4323C34.5991 38.2913 34.4785 38.1145 34.4046 37.9169C34.3148 37.6698 34.2721 37.408 34.2788 37.1451V35.2452H35.1124V37.1451C35.1023 37.3661 35.1559 37.5853 35.2667 37.7768C35.3784 37.944 35.5473 38.0648 35.7417 38.1164C36.0055 38.1867 36.2802 38.2069 36.5515 38.1758C36.9447 38.1372 37.334 38.0657 37.7152 37.9621V35.2547H38.5488V41.0422V41.0399ZM44.7234 41.0399H43.8874V38.4275H40.8168V41.0399H39.9808V35.2547H40.8168V37.8196H43.8684V35.2547H44.7044V41.0422L44.7234 41.0399ZM50.9123 41.0399H50.2663C50.2025 41.0423 50.1397 41.0231 50.0882 40.9852C50.0402 40.9489 50.0039 40.8994 49.9837 40.8427L49.4636 39.4843H46.8798L46.3597 40.8475C46.339 40.902 46.3036 40.9496 46.2576 40.9852C46.2066 41.0265 46.1426 41.0483 46.0771 41.047H45.4359L47.7347 35.2547H48.5778L50.8885 41.0422L50.9123 41.0399ZM47.1268 38.8859H49.2356L48.3617 36.606C48.3308 36.5324 48.3023 36.4493 48.2714 36.3543C48.2406 36.2593 48.2097 36.1548 48.1812 36.0432C48.1511 36.1556 48.1218 36.2601 48.0933 36.3566C48.0648 36.454 48.0339 36.5371 48.0054 36.6108L47.1291 38.8859H47.1268ZM54.7453 41.0399V38.57H53.9473C53.885 38.5726 53.823 38.5805 53.7621 38.5938C53.7019 38.6078 53.6442 38.6311 53.5911 38.6626C53.5306 38.6983 53.4748 38.7414 53.4249 38.7909C53.3625 38.8527 53.306 38.9203 53.2563 38.9927L52.0427 40.7478C51.9905 40.835 51.918 40.9084 51.8313 40.9615C51.7365 41.0173 51.6279 41.0453 51.5179 41.0422H50.8885L52.3609 38.9452C52.4984 38.7245 52.695 38.5468 52.9285 38.4323C52.7204 38.3931 52.5194 38.3226 52.3324 38.2233C52.1726 38.1379 52.0301 38.0235 51.9121 37.8861C51.8014 37.7553 51.7167 37.6046 51.6627 37.442C51.6063 37.2703 51.5782 37.0907 51.5796 36.91C51.5771 36.6772 51.624 36.4465 51.7173 36.2332C51.8079 36.0297 51.9445 35.85 52.1163 35.7083C52.3068 35.555 52.5254 35.4404 52.7599 35.3711C53.042 35.2877 53.335 35.2477 53.6291 35.2523H55.5765V41.0399H54.7453ZM52.4013 36.9029C52.399 37.0466 52.4215 37.1896 52.4678 37.3256C52.5108 37.4468 52.5845 37.5548 52.6815 37.6391C52.7923 37.7317 52.922 37.799 53.0615 37.8362C53.2449 37.8857 53.4344 37.9089 53.6244 37.9051H54.7453V35.9126H53.6291C53.4389 35.9088 53.2491 35.9336 53.0663 35.9862C52.9269 36.0261 52.7974 36.0949 52.6863 36.188C52.5894 36.272 52.5151 36.379 52.4702 36.4991C52.4228 36.6284 52.3994 36.7652 52.4013 36.9029ZM21.9319 50.7198H21.2883C21.2245 50.7222 21.1617 50.703 21.1102 50.6651C21.0622 50.6288 21.0259 50.5793 21.0057 50.5227L20.4856 49.1595H17.916L17.3959 50.5179C17.3752 50.5724 17.3399 50.62 17.2938 50.6556C17.2428 50.6969 17.1789 50.7188 17.1133 50.7174H16.4721L18.7781 44.9299H19.6212L21.9319 50.7174V50.7198ZM18.1464 48.5658H20.2553L19.3813 46.2859C19.3504 46.2123 19.3219 46.1292 19.2911 46.0342C19.2602 45.9392 19.2293 45.8347 19.2008 45.7231C19.1707 45.8355 19.1414 45.94 19.1129 46.0366C19.0844 46.1339 19.0536 46.217 19.0251 46.2907L18.1488 48.5658H18.1464ZM26.0309 46.3595C26.0362 46.6288 25.9628 46.8938 25.8195 47.1219C25.6712 47.3484 25.4622 47.5286 25.2163 47.642C25.3584 47.7048 25.4923 47.7845 25.6153 47.8794C25.7316 47.9653 25.8355 48.0668 25.924 48.181C26.0082 48.2912 26.0747 48.4138 26.1211 48.5444C26.1682 48.6795 26.1915 48.8217 26.19 48.9647C26.1923 49.2093 26.1446 49.4517 26.0499 49.6772C25.956 49.8969 25.8159 50.0937 25.639 50.2543C25.4458 50.4275 25.2197 50.5599 24.9741 50.6438C24.6843 50.7418 24.3799 50.7892 24.074 50.7839C23.6889 50.7891 23.3065 50.7189 22.9483 50.5773C22.6269 50.449 22.3339 50.2586 22.0863 50.0168L22.3238 49.6226C22.3455 49.5907 22.3738 49.564 22.4069 49.5442C22.4407 49.5244 22.4793 49.5146 22.5185 49.5157C22.564 49.5176 22.6083 49.5316 22.6467 49.5561C22.6942 49.5846 22.7512 49.6202 22.813 49.6606L23.0243 49.7983C23.1111 49.8522 23.2025 49.8983 23.2974 49.9361C23.4114 49.9808 23.529 50.0157 23.6489 50.0406C23.7942 50.0705 23.9423 50.0849 24.0906 50.0833C24.4372 50.1059 24.7805 50.005 25.0596 49.7983C25.1746 49.6989 25.2653 49.5744 25.3246 49.4344C25.3839 49.2944 25.4102 49.1427 25.4016 48.9909C25.4033 48.8509 25.3741 48.7122 25.3161 48.5848C25.2612 48.4639 25.1801 48.3568 25.0786 48.2713C24.9616 48.1789 24.8277 48.1103 24.6844 48.0694C24.5137 48.0209 24.3369 47.9977 24.1595 48.0006H23.3592V47.3142H24.1168C24.2715 47.3154 24.4258 47.2955 24.5751 47.2549C24.7042 47.2205 24.8257 47.1625 24.9337 47.0839C25.0336 47.0111 25.1149 46.916 25.1712 46.806C25.2274 46.6891 25.255 46.5605 25.2519 46.4308C25.2542 46.3068 25.2274 46.1839 25.1736 46.0722C25.1168 45.9639 25.0355 45.8703 24.9361 45.7991C24.8258 45.717 24.7008 45.6565 24.568 45.621C24.4062 45.5775 24.2392 45.5567 24.0716 45.5592C23.8864 45.5553 23.7016 45.5785 23.5231 45.6281C23.3921 45.6663 23.2649 45.7163 23.1431 45.7777C23.0543 45.8231 22.9679 45.873 22.8842 45.9273C22.8334 45.9665 22.7724 45.9904 22.7085 45.9962C22.6697 45.9976 22.6315 45.9868 22.5992 45.9653C22.566 45.9393 22.5392 45.906 22.5209 45.8679L22.3238 45.4737C22.5493 45.277 22.8105 45.1254 23.0932 45.0272C23.4113 44.9198 23.7454 44.8676 24.0811 44.8729C24.3551 44.8695 24.6281 44.9071 24.891 44.9845C25.1131 45.0491 25.3215 45.1537 25.5061 45.2932C25.671 45.4198 25.8049 45.5822 25.8979 45.7682C25.9904 45.954 26.0376 46.1591 26.0357 46.3667L26.0309 46.3595ZM31.0798 45.5972H28.135V47.4163H29.2322C29.5426 47.4102 29.8522 47.4494 30.1513 47.5327C30.3835 47.5976 30.6001 47.7091 30.7877 47.8604C30.9499 47.9931 31.0771 48.1636 31.1582 48.3568C31.2387 48.5559 31.279 48.769 31.277 48.9837C31.2793 49.2281 31.2324 49.4704 31.1392 49.6962C31.0505 49.9082 30.914 50.0968 30.7402 50.2472C30.5518 50.4069 30.3328 50.5265 30.0967 50.5986C29.815 50.6845 29.5218 50.7261 29.2275 50.7221H27.3109V44.9322H31.087V45.5972H31.0798ZM28.135 48.0766V50.0691H29.2275C29.4179 50.0728 29.6077 50.0472 29.7903 49.9931C29.9303 49.9521 30.0598 49.8817 30.1703 49.7864C30.2671 49.6995 30.3413 49.5903 30.3864 49.4682C30.4335 49.3389 30.4569 49.2021 30.4553 49.0645C30.4576 48.9224 30.435 48.7809 30.3888 48.6465C30.3458 48.526 30.2721 48.4188 30.175 48.3354C30.064 48.2436 29.9344 48.1772 29.795 48.1407C29.6114 48.0928 29.422 48.0704 29.2322 48.0742L28.135 48.0766ZM32.937 50.0928C33.004 50.0932 33.0708 50.0869 33.1365 50.0738C33.2051 50.0593 33.2709 50.0336 33.3312 49.9978C33.3985 49.9582 33.4587 49.9077 33.5093 49.8482C33.5705 49.7758 33.6224 49.696 33.6637 49.6107L33.9344 49.0431L31.6118 44.9465H32.3908C32.4529 44.9433 32.5141 44.9618 32.5641 44.9987C32.61 45.0372 32.6472 45.085 32.6734 45.1389L34.0532 47.6705C34.1562 47.8619 34.2397 48.0632 34.3025 48.2713C34.3334 48.1692 34.3666 48.0694 34.407 47.9697C34.4474 47.8699 34.4901 47.7726 34.5376 47.6705L35.7084 45.1222C35.7349 45.0712 35.7712 45.026 35.8153 44.9892C35.8645 44.9484 35.9271 44.9273 35.991 44.9299H36.6798L34.3287 49.9551C34.2661 50.0973 34.1863 50.2313 34.0912 50.354C34.0133 50.4514 33.9203 50.5356 33.8157 50.6034C33.7179 50.665 33.6103 50.7091 33.4975 50.734C33.3757 50.7602 33.2515 50.7729 33.127 50.772C33.0083 50.7766 32.8896 50.7622 32.7755 50.7293C32.6947 50.7008 32.6544 50.6604 32.6544 50.6058V50.0786L32.937 50.0928ZM38.2163 47.4567H38.81C38.8649 47.4571 38.9197 47.4532 38.9739 47.4448C39.0223 47.4369 39.0694 47.4225 39.114 47.4021C39.1601 47.3802 39.2025 47.3514 39.2398 47.3166C39.2845 47.2755 39.325 47.2301 39.361 47.1812L40.8334 45.1769C40.8736 45.1105 40.9269 45.0532 40.9901 45.0082C41.0519 44.9649 41.126 44.9424 41.2015 44.9441H41.9139L40.1969 47.319C40.0745 47.5022 39.8937 47.6386 39.684 47.7061C39.8189 47.739 39.9442 47.8033 40.0497 47.8937C40.1624 47.9975 40.2599 48.1166 40.3394 48.2475L42.0659 50.7388H41.3202C41.2438 50.7419 41.1686 50.7193 41.1065 50.6746C41.0419 50.6217 40.9886 50.5563 40.9497 50.4823L39.4702 48.3924C39.4124 48.2976 39.3304 48.2197 39.2327 48.1668C39.1289 48.121 39.016 48.0998 38.9026 48.1051H38.2163V50.7388H37.3851V44.9322H38.2163V47.4448V47.4567ZM47.5685 50.7316H46.9225C46.8587 50.7341 46.7959 50.7148 46.7444 50.677C46.6964 50.6407 46.6601 50.5912 46.6399 50.5345L46.1198 49.1595H43.5526L43.0325 50.5179C43.0118 50.5724 42.9765 50.62 42.9304 50.6556C42.8794 50.6969 42.8155 50.7188 42.7499 50.7174H42.1087L44.4099 44.9322H45.253L47.5637 50.7198L47.5685 50.7316ZM43.783 48.5776H45.8918L45.0179 46.2978C44.987 46.2242 44.9585 46.141 44.9276 46.0461C44.8968 45.9511 44.8659 45.8466 44.8374 45.7349C44.8073 45.8474 44.778 45.9519 44.7495 46.0484C44.721 46.1458 44.6901 46.2289 44.6617 46.3025L43.7853 48.5776H43.783Z" fill="#647DD2"/>
</svg>
