<svg width="16" height="19" viewBox="0 0 16 19" fill="none" xmlns="http://www.w3.org/2000/svg">
<path d="M7 17.5L7 18.5L9 18.5L9 17.5L7 17.5ZM8.70712 0.292894C8.31659 -0.0976315 7.68343 -0.0976314 7.2929 0.292892L0.928937 6.65685C0.538413 7.04738 0.538413 7.68054 0.928937 8.07106C1.31946 8.46159 1.95263 8.46159 2.34315 8.07107L8.00001 2.41421L13.6569 8.07107C14.0474 8.4616 14.6805 8.4616 15.0711 8.07107C15.4616 7.68055 15.4616 7.04738 15.0711 6.65686L8.70712 0.292894ZM9 17.5L9.00001 1L7.00001 1L7 17.5L9 17.5Z" fill="white"/>
</svg>
