<svg width="17" height="17" viewBox="0 0 17 17" fill="none" xmlns="http://www.w3.org/2000/svg">
<path d="M1.12129 16.2635C0.730768 15.8729 0.730768 15.2398 1.12129 14.8492L15.2634 0.707108C15.654 0.316584 16.2871 0.316584 16.6776 0.707108C17.0682 1.09763 17.0682 1.7308 16.6776 2.12132L2.53551 16.2635C2.14498 16.654 1.51182 16.654 1.12129 16.2635Z" fill="#4357A0"/>
<path d="M0.707078 0.707108C1.0976 0.316584 1.73077 0.316584 2.12129 0.707108L16.2634 14.8492C16.6539 15.2398 16.654 15.8729 16.2634 16.2635C15.8729 16.654 15.2397 16.654 14.8492 16.2635L0.707078 2.12132C0.316554 1.7308 0.316553 1.09763 0.707078 0.707108Z" fill="#4357A0"/>
</svg>
