<svg width="32" height="18" viewBox="0 0 32 18" fill="none" xmlns="http://www.w3.org/2000/svg">
<path d="M31.8332 16.2102C31.7952 16.1283 31.7598 16.0604 31.7269 16.006C31.1825 15.0255 30.1422 13.822 28.6065 12.3952L28.5741 12.3626L28.5578 12.3465L28.5414 12.3301H28.525C27.828 11.6657 27.3867 11.219 27.2018 10.9903C26.8637 10.5546 26.7879 10.1136 26.9727 9.66677C27.1033 9.32917 27.5938 8.6162 28.4431 7.52689C28.8898 6.94958 29.2436 6.4869 29.5049 6.13831C31.3892 3.63318 32.2061 2.03237 31.9555 1.33525L31.8582 1.17234C31.7928 1.07427 31.624 0.984542 31.352 0.902717C31.0794 0.821062 30.731 0.807559 30.3061 0.861976L25.6012 0.894477C25.525 0.867469 25.4161 0.869986 25.2743 0.902717C25.1327 0.935447 25.0619 0.95187 25.0619 0.95187L24.98 0.992783L24.915 1.04193C24.8605 1.07444 24.8006 1.1316 24.7352 1.21331C24.6702 1.29474 24.6157 1.3903 24.5722 1.49919C24.06 2.81704 23.4776 4.04231 22.824 5.17494C22.421 5.85032 22.0509 6.43563 21.7129 6.93122C21.3753 7.42663 21.0921 7.79165 20.8636 8.02562C20.6347 8.25983 20.4281 8.44745 20.2426 8.58919C20.0574 8.73098 19.916 8.79089 19.8181 8.76898C19.72 8.74706 19.6276 8.72532 19.5401 8.70357C19.3877 8.6055 19.2651 8.47212 19.1727 8.30331C19.0799 8.13451 19.0174 7.92205 18.9847 7.6661C18.9522 7.40998 18.933 7.18968 18.9275 7.00446C18.9224 6.81947 18.9248 6.55779 18.9358 6.22019C18.9472 5.88242 18.9522 5.65388 18.9522 5.53406C18.9522 5.12012 18.9603 4.67088 18.9765 4.18622C18.993 3.70156 19.0063 3.31755 19.0175 3.03465C19.0286 2.75146 19.0337 2.45186 19.0337 2.136C19.0337 1.82014 19.0145 1.57243 18.9765 1.39264C18.939 1.21308 18.8814 1.03879 18.8054 0.869815C18.729 0.701013 18.6172 0.570436 18.4705 0.477738C18.3235 0.385155 18.1407 0.311683 17.9232 0.257094C17.3459 0.126459 16.6108 0.0557914 15.7176 0.044805C13.6919 0.0230611 12.3903 0.153868 11.813 0.437054C11.5843 0.556702 11.3774 0.720182 11.1923 0.926978C10.9962 1.16668 10.9689 1.29748 11.1104 1.319C11.764 1.4169 12.2267 1.65111 12.499 2.02138L12.5971 2.21759C12.6735 2.35916 12.7497 2.60979 12.826 2.96913C12.9021 3.32848 12.9513 3.72599 12.9729 4.16144C13.0273 4.95664 13.0273 5.63734 12.9729 6.2036C12.9184 6.77008 12.8669 7.21108 12.8177 7.52694C12.7686 7.8428 12.6951 8.09875 12.5971 8.29473C12.499 8.49077 12.4337 8.61059 12.401 8.65408C12.3683 8.69757 12.3411 8.72497 12.3194 8.73573C12.1779 8.78998 12.0306 8.81762 11.8783 8.81762C11.7257 8.81762 11.5406 8.74128 11.3228 8.58873C11.1051 8.43618 10.8791 8.22664 10.6449 7.95976C10.4107 7.69283 10.1466 7.3198 9.85242 6.84064C9.55848 6.36147 9.25349 5.79516 8.93763 5.14169L8.6763 4.66779C8.51294 4.36292 8.28978 3.919 8.00659 3.33643C7.72323 2.75364 7.47278 2.1899 7.25505 1.64533C7.16802 1.41662 7.03727 1.24249 6.86303 1.12267L6.78126 1.07352C6.7269 1.03003 6.63964 0.983856 6.51994 0.934646C6.40006 0.885493 6.27497 0.850245 6.14417 0.828558L1.66784 0.86106C1.21041 0.86106 0.900049 0.964687 0.736626 1.17165L0.671223 1.26956C0.63855 1.32409 0.62207 1.41118 0.62207 1.53106C0.62207 1.65088 0.654743 1.79794 0.720147 1.97206C1.37361 3.50787 2.08423 4.98903 2.85202 6.41577C3.61981 7.84252 4.28701 8.9918 4.85321 9.86258C5.41952 10.734 5.99677 11.5564 6.58494 12.3295C7.17311 13.1028 7.56244 13.5984 7.75293 13.8161C7.94365 14.0343 8.09345 14.1973 8.20234 14.3062L8.61084 14.6983C8.87223 14.9597 9.25606 15.2728 9.76253 15.6376C10.2691 16.0026 10.8299 16.362 11.4453 16.7162C12.0607 17.0699 12.7767 17.3585 13.5937 17.5817C14.4105 17.8052 15.2055 17.8948 15.9789 17.8516H17.8577C18.2387 17.8187 18.5274 17.6989 18.7236 17.4921L18.7886 17.4102C18.8323 17.3452 18.8732 17.2442 18.911 17.1083C18.9492 16.9722 18.9682 16.8222 18.9682 16.659C18.9571 16.1908 18.9927 15.7688 19.0742 15.3931C19.1556 15.0175 19.2484 14.7343 19.3522 14.5436C19.456 14.353 19.573 14.1923 19.7033 14.0619C19.8339 13.9313 19.9269 13.8521 19.9815 13.8249C20.0358 13.7975 20.0791 13.7789 20.1118 13.7677C20.3732 13.6806 20.6808 13.765 21.0351 14.0212C21.3891 14.2771 21.7212 14.5931 22.0318 14.9687C22.3422 15.3447 22.7151 15.7665 23.1507 16.2347C23.5866 16.7031 23.9677 17.0513 24.2943 17.2803L24.6209 17.4764C24.839 17.6072 25.1222 17.727 25.4708 17.8359C25.8187 17.9447 26.1236 17.972 26.3854 17.9176L30.5675 17.8523C30.9812 17.8523 31.303 17.7838 31.5313 17.6479C31.7601 17.5118 31.896 17.3618 31.9398 17.1987C31.9835 17.0354 31.9859 16.8501 31.9481 16.643C31.9094 16.4363 31.8712 16.2919 31.8332 16.2102Z" fill="black"/>
</svg>
